# xmcd
#
# Track frame offsets:
#	150
#	10607
#	27205
#	41478
#	63204
#	78892
#	99429
#	112328
#	127612
#	139600
#	155741
#	171314
#
# Disc length: 2598 seconds
#
# Revision: 1
# Processed by: cddbd v1.5.2PL0 Copyright (c) Steve Scherf et al.
# Submitted via: audiograbber 1.83.01
#
DISCID=8d0a240c
DTITLE=Rolling Stones - Blue And Lonesome
DYEAR=2016
DGENRE=Blues
TTITLE0=Just Your Fool
TTITLE1=Commit A Crime
TTITLE2=Blue And Lonesome
TTITLE3=All Of Your Love
TTITLE4=I Gotta Go
TTITLE5=Everybody Knows About My Good Thing
TTITLE6=Ride ém On Down
TTITLE7=Hate To See You Go
TTITLE8=Hoo Doo Blues
TTITLE9=Little Rain
TTITLE10=Just Like I Treat You
TTITLE11=I Can`t Quit You Baby
EXTD=
EXTT0=
EXTT1=
EXTT2=
EXTT3=
EXTT4=
EXTT5=
EXTT6=
EXTT7=
EXTT8=
EXTT9=
EXTT10=
EXTT11=
PLAYORDER=
